<svg xmlns="http://www.w3.org/2000/svg" viewBox="0 0 800 500" width="800" height="500" role="img">
  <title>Phone showing a post and two caption bubbles</title>
  <path fill="#1885FA" d="M78.0 75.0 L80.0 84.0 L89.0 86.0 L80.0 88.0 L78.0 97.0 L76.0 88.0 L67.0 86.0 L76.0 84.0 Z"/>
  <path fill="#2563EB" d="M730.0 62.0 L731.4 68.6 L738.0 70.0 L731.4 71.4 L730.0 78.0 L728.6 71.4 L722.0 70.0 L728.6 68.6 Z"/>
  <path fill="#7CB6FC" d="M64.0 393.0 L65.3 398.7 L71.0 400.0 L65.3 401.3 L64.0 407.0 L62.7 401.3 L57.0 400.0 L62.7 398.7 Z"/>
  <path fill="#1885FA" d="M740.0 418.0 L742.2 427.8 L752.0 430.0 L742.2 432.2 L740.0 442.0 L737.8 432.2 L728.0 430.0 L737.8 427.8 Z"/>
  <rect x="168" y="58" width="236" height="400" rx="40" fill="#0F2744" opacity="0.08"/>
  <rect x="156" y="44" width="236" height="400" rx="40" fill="#0F2744"/>
  <rect x="172" y="86" width="204" height="334" rx="22" fill="#F4F7FA"/>
  <circle cx="274" cy="66" r="5" fill="#FFFFFF" opacity="0.85"/>
  <rect x="186" y="102" width="176" height="156" rx="16" fill="#1885FA"/>
  <circle cx="248" cy="156" r="26" fill="#FFFFFF" opacity="0.9"/>
  <path d="M186 214 C220 186 250 206 286 176 C312 196 340 188 362 206 V242 a16 16 0 0 1 -16 16 H202 a16 16 0 0 1 -16 -16 Z" fill="#0F2744"/>
  <rect x="190" y="274" width="150" height="10" rx="5" fill="#E6EEF6"/>
  <rect x="190" y="292" width="124" height="10" rx="5" fill="#D5E2F0"/>
  <rect x="190" y="310" width="92" height="10" rx="5" fill="#1885FA"/>
  <path d="M198 338 c0 -7 11 -7 11 1 c0 -8 11 -8 11 -1 c0 8 -11 14 -11 14 c0 0 -11 -6 -11 -14 Z" fill="#1885FA"/>
  <path d="M338 332 h16 v24 l-8 -6 l-8 6 Z" fill="#0F2744"/>
  <rect x="448" y="108" width="250" height="108" rx="24" fill="#FFFFFF"/>
  <path d="M448 156 L424 170 L452 184 Z" fill="#FFFFFF"/>
  <rect x="470" y="134" width="168" height="11" rx="5.5" fill="#E6EEF6"/>
  <rect x="470" y="156" width="140" height="11" rx="5.5" fill="#D5E2F0"/>
  <rect x="470" y="178" width="96" height="11" rx="5.5" fill="#1885FA"/>
  <rect x="486" y="268" width="230" height="96" rx="22" fill="#FFFFFF"/>
  <path d="M486 304 L464 316 L490 332 Z" fill="#FFFFFF"/>
  <rect x="508" y="292" width="160" height="10" rx="5" fill="#E6EEF6"/>
  <rect x="508" y="314" width="120" height="10" rx="5" fill="#D5E2F0"/>
  <rect x="508" y="336" width="78" height="10" rx="5" fill="#2563EB"/>
</svg>
